{"title":"Jumanji 1995 DVD9rip English Klam","uid":5942827,"size":1676483854,"categoryP":"video","categoryS":"movies","magnet":"?xt=urn:btih:39cef6ee361e859648200517caf4eabdd99c3c6b&amp;dn=Jumanji+1995+DVD9rip+English+Klam&amp;tr=udp%3A%2F%2Ftracker.openbittorrent.com%3A80&amp;tr=udp%3A%2F%2Fopen.demonii.com%3A1337&amp;tr=udp%3A%2F%2Ftracker.coppersurfer.tk%3A6969&amp;tr=udp%3A%2F%2Fexodus.desync.com%3A6969","seeders":1,"leechers":0,"uploader":"Klambake","files":-1,"time":1289243630,"description":"With: Robin Williams, Kirsten Dunst and Bonnie Hunt\n\nAfter being trapped in a jungle board game for 26 years, a Man-Child wins his release from the game. But, no sooner has he arrived that he is forced to play again, and this time sets the creatures of the jungle loose on the city. Now it is up to him to stop them. \n\nGeneral:\n\nComplete name                    : Klambake\\Jumanji\\Jumanji.mp4\nFormat                           : MPEG-4\nFormat profile                   : Base Media / Version 2\nCodec ID                         : mp42\nFile size                        : 1.56 GiB\nDuration                         : 1h 39mn\nOverall bit rate                 : 2 236 Kbps\nEncoded date                     : UTC 2010-11-08 13:48:26\nTagged date                      : UTC 2010-11-08 16:40:15\nWriting application              : HandBrake 0.9.3 2008112300\n\nVideo:\n\nFormat                           : MPEG-4 Visual\nFormat profile                   : Simple@L3\nFormat settings, BVOP            : No\nFormat settings, QPel            : No\nFormat settings, GMC             : No warppoints\nFormat settings, Matrix          : Default (H.263)\nCodec ID                         : 20\nDuration                         : 1h 39mn\nBit rate mode                    : Variable\nBit rate                         : 1 787 Kbps\nMaximum bit rate                 : 6 967 Kbps\nWidth                            : 720 pixels\nHeight                           : 576 pixels\nDisplay aspect ratio             : 5:4\nFrame rate mode                  : Variable\nFrame rate                       : 25.000 fps\nMinimum frame rate               : 12.500 fps\nMaximum frame rate               : 26.287 fps\nStandard                         : PAL\nColor space                      : YUV\nChroma subsampling               : 4:2:0\nBit depth                        : 8 bits\nScan type                        : Progressive\nBits/(Pixel*Frame)               : 0.172\nStream size                      : 1.25 GiB (80%)\nWriting library                  : XviD 1.1.2 (UTC 2006-11-01)\nLanguage                         : English\nEncoded date                     : UTC 2010-11-08 13:48:26\nTagged date                      : UTC 2010-11-08 16:40:15\n\nAudio:\n\nFormat                           : AC-3\nFormat/Info                      : Audio Coding 3\nMode extension                   : CM (complete main)\nCodec ID                         : ac-3\nDuration                         : 1h 39mn\nBit rate mode                    : Constant\nBit rate                         : 448 Kbps\nChannel(s)                       : 6 channels\nChannel positions                : Front: L C R, Side: L R, LFE\nSampling rate                    : 48.0 KHz\nBit depth                        : 16 bits\nStream size                      : 320 MiB (20%)\nLanguage                         : English\nEncoded date                     : UTC 2010-11-08 13:48:26\nTagged date                      : UTC 2010-11-08 16:40:13","torrent":{"xt":"urn:btih:39cef6ee361e859648200517caf4eabdd99c3c6b","amp;dn":"Jumanji+1995+DVD9rip+English+Klam","amp;tr":["udp%3A%2F%2Ftracker.openbittorrent.com%3A80","udp%3A%2F%2Fopen.demonii.com%3A1337","udp%3A%2F%2Ftracker.coppersurfer.tk%3A6969","udp%3A%2F%2Fexodus.desync.com%3A6969"],"infoHash":"39cef6ee361e859648200517caf4eabdd99c3c6b","infoHashBuffer":{"type":"Buffer","data":[57,206,246,238,54,30,133,150,72,32,5,23,202,244,234,189,217,156,60,107]},"announce":[],"urlList":[]}}